<?xml version="1.0" encoding="utf-8"?>
<!-- Generator: Adobe Illustrator 23.1.1, SVG Export Plug-In . SVG Version: 6.00 Build 0)  -->
<svg version="1.1" id="Layer_1" xmlns="http://www.w3.org/2000/svg" xmlns:xlink="http://www.w3.org/1999/xlink" x="0px" y="0px"
	 viewBox="0 0 85 36" style="enable-background:new 0 0 85 36;" xml:space="preserve">
<style type="text/css">
	.st0{fill-rule:evenodd;clip-rule:evenodd;fill:#0097FF;}
	.st1{filter:url(#Adobe_OpacityMaskFilter);}
	.st2{fill-rule:evenodd;clip-rule:evenodd;fill:#FFFFFF;}
	.st3{mask:url(#mask-2_1_);fill-rule:evenodd;clip-rule:evenodd;fill:#0097FF;}
	.st4{filter:url(#Adobe_OpacityMaskFilter_1_);}
	.st5{mask:url(#mask-4_1_);fill-rule:evenodd;clip-rule:evenodd;fill:#0097FF;}
	.st6{fill-rule:evenodd;clip-rule:evenodd;fill:#292A37;}
</style>
<g id="Group-15" transform="translate(138.000000, 10.000000)">
	<path id="Fill-1" class="st0" d="M-99.8-0.6c-1.4,0-3.1,0.1-4.2,1.4c-1.1-1.3-2.7-1.4-4.2-1.4c-2.7,0-4.4,1.9-4.4,5v7
		c0,0.2,0.1,0.5,0.3,0.5h2.9c0.2,0,0.3-0.3,0.3-0.5V4.7c0-1.2,0.5-1.9,1.6-1.9c1.2,0,1.8,0.8,1.8,2.2v6.4c0,0.2,0.2,0.5,0.4,0.5h2.7
		c0.2,0,0.4-0.3,0.4-0.5V4.9c0-1.4,0.6-2.2,1.8-2.2c1.1,0,1.6,0.7,1.6,1.9v6.7c0,0.2,0.1,0.5,0.3,0.5h2.9c0.2,0,0.3-0.3,0.3-0.5V4.3
		C-95.3,1.3-97.1-0.6-99.8-0.6L-99.8-0.6z M-79.2-5.6h2.9c0.2,0,0.3,0.1,0.3,0.3v16.8c0,0.2-0.1,0.3-0.3,0.3h-2.9
		c-0.2,0-0.3-0.1-0.3-0.3V-5.3C-79.5-5.4-79.4-5.6-79.2-5.6L-79.2-5.6z M-84.4,5.9c0-1.8-1.2-2.9-2.8-2.9C-88.8,3-90,4.1-90,5.9
		s1.2,2.9,2.8,2.9C-85.6,8.8-84.4,7.7-84.4,5.9L-84.4,5.9z M-80.9,5.9c0,3.6-2.5,6.3-5.6,6.3c-1.5,0-2.7-0.5-3.5-1.5v5.6
		c0,0.2-0.2,0.4-0.4,0.4h-2.9c-0.2,0-0.4-0.2-0.4-0.4V0.2c0-0.2,0.2-0.4,0.4-0.4h2.9c0.2,0,0.4,0.2,0.4,0.4v0.8
		c0.8-0.9,1.9-1.5,3.5-1.5C-83.4-0.4-80.9,2.4-80.9,5.9L-80.9,5.9z M-113.2-0.1c0.2,0,0.4,0.2,0.3,0.4l-3.9,11.2
		c-1.3,3.7-3.3,5.2-6.4,5.1c-0.2,0-0.3-0.2-0.3-0.3v-2.8c0-0.2,0.1-0.3,0.3-0.3c1.4-0.1,2.1-0.5,2.6-1.8v-0.2L-125,0.3
		c-0.1-0.2,0.1-0.5,0.3-0.5h3.2c0.1,0,0.3,0.1,0.3,0.2l2.5,7.1l2.2-7.1c0-0.1,0.2-0.2,0.3-0.2L-113.2-0.1L-113.2-0.1z M-137.7,8
		l2.7-1.6c0.2-0.1,0.4,0,0.5,0.1c0.6,1.2,1.6,2,3.3,2c1.8,0,2.3-0.7,2.3-1.4c0-1-0.9-1.5-3.4-2.1c-2.4-0.7-4.9-1.9-4.9-5
		c0-3.2,2.6-5,5.5-5c2.6,0,4.7,1.2,5.9,3.5c0.1,0.2,0,0.4-0.1,0.4l-2.7,1.6c-0.2,0.1-0.4,0-0.5-0.1c-0.5-1-1.4-1.6-2.7-1.6
		c-1.2,0-1.8,0.6-1.8,1.3c0,0.7,0.4,1.3,3,2.1c2.5,0.7,5.3,1.6,5.3,5.1c0,3.2-2.5,5.1-6.2,5.1c-3.3,0-5.5-1.6-6.5-3.9
		C-137.9,8.1-137.9,8-137.7,8L-137.7,8z M-65.6,5.8c0-1.7-1.2-2.9-2.8-2.9c-1.6,0-2.8,1.1-2.8,2.9c0,1.7,1.2,2.9,2.8,2.9
		C-66.7,8.8-65.6,7.6-65.6,5.8L-65.6,5.8z M-62.1,0.2v11.3c0,0.2-0.1,0.3-0.3,0.3h-2.9c-0.2,0-0.3-0.1-0.3-0.3v-0.8
		c-0.8,0.9-1.9,1.5-3.5,1.5c-3.1,0-5.6-2.8-5.6-6.2c0-3.6,2.5-6.2,5.6-6.2c1.5,0,2.7,0.5,3.5,1.5V0.3c0-0.2,0.1-0.3,0.3-0.3h2.9
		C-62.2-0.1-62.1,0.1-62.1,0.2L-62.1,0.2z"/>
	<path id="Fill-3" class="st0" d="M-69.9-6.6c1.1,0,1.9,0.9,1.9,1.9c0,1.1-0.9,1.9-1.9,1.9s-1.9-0.9-1.9-1.9
		C-71.8-5.7-71-6.6-69.9-6.6"/>
	<g id="Group-7" transform="translate(71.027027, 0.486486)">
		<g id="Clip-6">
		</g>
		<defs>
			<filter id="Adobe_OpacityMaskFilter" filterUnits="userSpaceOnUse" x="-137.6" y="-9.8" width="5.4" height="5.4">
				<feColorMatrix  type="matrix" values="1 0 0 0 0  0 1 0 0 0  0 0 1 0 0  0 0 0 1 0"/>
			</filter>
		</defs>
		<mask maskUnits="userSpaceOnUse" x="-137.6" y="-9.8" width="5.4" height="5.4" id="mask-2_1_">
			<g class="st1">
				<polygon id="path-1_1_" class="st2" points="-137.6,-9.8 -132.2,-9.8 -132.2,-4.4 -137.6,-4.4 				"/>
			</g>
		</mask>
		<path id="Fill-5" class="st3" d="M-134.9-9.8c1.5,0,2.7,1.2,2.7,2.7c0,1.5-1.2,2.7-2.7,2.7c-1.5,0-2.7-1.2-2.7-2.7
			C-137.6-8.6-136.4-9.8-134.9-9.8"/>
	</g>
	<g id="Group-10" transform="translate(81.729730, 31.621622)">
		<g id="Clip-9">
		</g>
		<defs>
			<filter id="Adobe_OpacityMaskFilter_1_" filterUnits="userSpaceOnUse" x="-137.9" y="-9.8" width="2.4" height="2.8">
				<feColorMatrix  type="matrix" values="1 0 0 0 0  0 1 0 0 0  0 0 1 0 0  0 0 0 1 0"/>
			</filter>
		</defs>
		<mask maskUnits="userSpaceOnUse" x="-137.9" y="-9.8" width="2.4" height="2.8" id="mask-4_1_">
			<g class="st4">
				<polygon id="path-3_1_" class="st2" points="-137.9,-9.8 -135.5,-9.8 -135.5,-7.1 -137.9,-7.1 				"/>
			</g>
		</mask>
		<path id="Fill-8" class="st5" d="M-136.7-9.8c0.7,0,1.2,0.6,1.2,1.4c0,0.8-0.5,1.4-1.2,1.4s-1.2-0.6-1.2-1.4
			C-137.9-9.2-137.3-9.8-136.7-9.8"/>
	</g>
	<path id="Fill-11" class="st6" d="M-59,22c0-1-0.6-1.5-1.4-1.5c-0.8,0-1.4,0.6-1.4,1.5c0,1,0.6,1.5,1.4,1.5
		C-59.7,23.5-59,22.9-59,22L-59,22z M-63.7,22c0-1.9,1.4-3.4,3.2-3.4h0c1.8,0,3.2,1.5,3.2,3.4v0c0,1.9-1.4,3.4-3.2,3.4
		C-62.2,25.4-63.7,24-63.7,22L-63.7,22z M-65.1,20.6v2.3c0,0.5,0.3,0.6,0.9,0.6c0.2,0,0.4,0.2,0.4,0.4v1c0,0.2-0.2,0.4-0.4,0.4
		c-2.1,0.2-2.7-0.7-2.7-2.4v-2.3h-0.6c-0.2,0-0.4-0.2-0.4-0.4v-1c0-0.2,0.2-0.4,0.4-0.4h0.6v-1c0-0.2,0.1-0.4,0.3-0.4l1.1-0.4
		c0.3-0.1,0.5,0.1,0.5,0.4v1.2h0.9c0.2,0,0.4,0.2,0.4,0.4v1c0,0.2-0.2,0.4-0.4,0.4h-1V20.6z M-69.8,21.3c-0.2-0.8-0.7-1-1.3-1
		c-0.7,0-1.2,0.4-1.3,1H-69.8z M-71,23.7c0.4,0,0.7-0.1,1-0.3c0.1-0.1,0.3-0.1,0.4,0l0.8,0.5c0.3,0.1,0.3,0.5,0.1,0.7
		c-0.6,0.6-1.3,1-2.3,1c-2.1,0-3.4-1.5-3.4-3.4s1.3-3.4,3.2-3.4c1.8,0,3.1,1.4,3.1,3.4v0.4c0,0.2-0.2,0.4-0.4,0.4h-4
		C-72.1,23.5-71.6,23.7-71,23.7L-71,23.7z M-76.4,15.8h1.1c0.2,0,0.4,0.2,0.4,0.4v8.7c0,0.2-0.2,0.4-0.4,0.4h-1.1
		c-0.2,0-0.4-0.2-0.4-0.4v-8.7C-76.8,16-76.6,15.8-76.4,15.8L-76.4,15.8z M-79.3,18.7h1.1c0.2,0,0.4,0.2,0.4,0.4v5.6
		c0,0.2-0.2,0.4-0.4,0.4h-1.1c-0.2,0-0.4-0.2-0.4-0.4v-5.6C-79.6,18.9-79.5,18.7-79.3,18.7L-79.3,18.7z M-82.1,22.5
		c0-0.5-0.4-0.9-0.8-0.9h-1.6v1.7h1.6C-82.4,23.3-82.1,22.9-82.1,22.5L-82.1,22.5z M-84.5,18.1v1.6h1.4c0.4,0,0.7-0.4,0.7-0.8
		c0-0.5-0.3-0.8-0.7-0.8L-84.5,18.1L-84.5,18.1z M-80.1,22.6c0,1.6-1.3,2.7-2.8,2.7h-3.2c-0.2,0-0.4-0.2-0.4-0.4v-8.3
		c0-0.2,0.2-0.4,0.4-0.4h2.9c1.5,0,2.7,1,2.7,2.6c0,0.8-0.3,1.3-0.7,1.8C-80.5,21-80.1,21.7-80.1,22.6L-80.1,22.6z"/>
	<path id="Fill-13" class="st6" d="M-78.6,15.8c0.5,0,1,0.4,1,1c0,0.5-0.4,1-1,1c-0.5,0-1-0.4-1-1C-79.6,16.2-79.2,15.8-78.6,15.8"
		/>
</g>
</svg>
